<svg width="71" height="17" viewBox="0 0 71 17" fill="none" xmlns="http://www.w3.org/2000/svg">
<path d="M8.3584 5.50195V6.88184H1.43262V5.50195H8.3584ZM1.69629 0V12.7969H0V0H1.69629ZM9.83496 0V12.7969H8.14746V0H9.83496ZM18.2109 11.1709V6.27539C18.2109 5.90039 18.1348 5.5752 17.9824 5.2998C17.8359 5.01855 17.6133 4.80176 17.3145 4.64941C17.0156 4.49707 16.6465 4.4209 16.207 4.4209C15.7969 4.4209 15.4365 4.49121 15.126 4.63184C14.8213 4.77246 14.5811 4.95703 14.4053 5.18555C14.2354 5.41406 14.1504 5.66016 14.1504 5.92383H12.5244C12.5244 5.58398 12.6123 5.24707 12.7881 4.91309C12.9639 4.5791 13.2158 4.27734 13.5439 4.00781C13.8779 3.73242 14.2764 3.51562 14.7393 3.35742C15.208 3.19336 15.7295 3.11133 16.3037 3.11133C16.9951 3.11133 17.6045 3.22852 18.1318 3.46289C18.665 3.69727 19.0811 4.05176 19.3799 4.52637C19.6846 4.99512 19.8369 5.58398 19.8369 6.29297V10.7227C19.8369 11.0391 19.8633 11.376 19.916 11.7334C19.9746 12.0908 20.0596 12.3984 20.1709 12.6562V12.7969H18.4746C18.3926 12.6094 18.3281 12.3604 18.2812 12.0498C18.2344 11.7334 18.2109 11.4404 18.2109 11.1709ZM18.4922 7.03125L18.5098 8.17383H16.8662C16.4033 8.17383 15.9902 8.21191 15.627 8.28809C15.2637 8.3584 14.959 8.4668 14.7129 8.61328C14.4668 8.75977 14.2793 8.94434 14.1504 9.16699C14.0215 9.38379 13.957 9.63867 13.957 9.93164C13.957 10.2305 14.0244 10.5029 14.1592 10.749C14.2939 10.9951 14.4961 11.1914 14.7656 11.3379C15.041 11.4785 15.3779 11.5488 15.7764 11.5488C16.2744 11.5488 16.7139 11.4434 17.0947 11.2324C17.4756 11.0215 17.7773 10.7637 18 10.459C18.2285 10.1543 18.3516 9.8584 18.3691 9.57129L19.0635 10.3535C19.0225 10.5996 18.9111 10.8721 18.7295 11.1709C18.5479 11.4697 18.3047 11.7568 18 12.0322C17.7012 12.3018 17.3438 12.5273 16.9277 12.709C16.5176 12.8848 16.0547 12.9727 15.5391 12.9727C14.8945 12.9727 14.3291 12.8467 13.8428 12.5947C13.3623 12.3428 12.9873 12.0059 12.7178 11.584C12.4541 11.1562 12.3223 10.6787 12.3223 10.1514C12.3223 9.6416 12.4219 9.19336 12.6211 8.80664C12.8203 8.41406 13.1074 8.08887 13.4824 7.83105C13.8574 7.56738 14.3086 7.36816 14.8359 7.2334C15.3633 7.09863 15.9521 7.03125 16.6025 7.03125H18.4922ZM26.8594 8.61328H23.7393L23.7217 7.3125H26.2705C26.7744 7.3125 27.1934 7.2627 27.5273 7.16309C27.8672 7.06348 28.1221 6.91406 28.292 6.71484C28.4619 6.51562 28.5469 6.26953 28.5469 5.97656C28.5469 5.74805 28.4971 5.54883 28.3975 5.37891C28.3037 5.20312 28.1602 5.05957 27.9668 4.94824C27.7734 4.83105 27.5332 4.74609 27.2461 4.69336C26.9648 4.63477 26.6338 4.60547 26.2529 4.60547H24.1699V12.7969H22.5439V3.28711H26.2529C26.8564 3.28711 27.3984 3.33984 27.8789 3.44531C28.3652 3.55078 28.7783 3.71191 29.1182 3.92871C29.4639 4.13965 29.7275 4.40918 29.9092 4.7373C30.0908 5.06543 30.1816 5.45215 30.1816 5.89746C30.1816 6.18457 30.123 6.45703 30.0059 6.71484C29.8887 6.97266 29.7158 7.20117 29.4873 7.40039C29.2588 7.59961 28.9775 7.76367 28.6436 7.89258C28.3096 8.01562 27.9258 8.09473 27.4922 8.12988L26.8594 8.61328ZM26.8594 12.7969H23.1504L23.959 11.4785H26.8594C27.3105 11.4785 27.6855 11.4229 27.9844 11.3115C28.2832 11.1943 28.5059 11.0303 28.6523 10.8193C28.8047 10.6025 28.8809 10.3447 28.8809 10.0459C28.8809 9.74707 28.8047 9.49219 28.6523 9.28125C28.5059 9.06445 28.2832 8.90039 27.9844 8.78906C27.6855 8.67188 27.3105 8.61328 26.8594 8.61328H24.3896L24.4072 7.3125H27.4922L28.0811 7.80469C28.6025 7.8457 29.0449 7.97461 29.4082 8.19141C29.7715 8.4082 30.0469 8.68359 30.2344 9.01758C30.4219 9.3457 30.5156 9.70312 30.5156 10.0898C30.5156 10.5352 30.4307 10.9277 30.2607 11.2676C30.0967 11.6074 29.8564 11.8916 29.54 12.1201C29.2236 12.3428 28.8398 12.5127 28.3887 12.6299C27.9375 12.7412 27.4277 12.7969 26.8594 12.7969ZM36.6416 12.9727C35.9795 12.9727 35.3789 12.8613 34.8398 12.6387C34.3066 12.4102 33.8467 12.0908 33.46 11.6807C33.0791 11.2705 32.7861 10.7842 32.5811 10.2217C32.376 9.65918 32.2734 9.04395 32.2734 8.37598V8.00684C32.2734 7.2334 32.3877 6.54492 32.6162 5.94141C32.8447 5.33203 33.1553 4.81641 33.5479 4.39453C33.9404 3.97266 34.3857 3.65332 34.8838 3.43652C35.3818 3.21973 35.8975 3.11133 36.4307 3.11133C37.1104 3.11133 37.6963 3.22852 38.1885 3.46289C38.6865 3.69727 39.0938 4.02539 39.4102 4.44727C39.7266 4.86328 39.9609 5.35547 40.1133 5.92383C40.2656 6.48633 40.3418 7.10156 40.3418 7.76953V8.49902H33.2402V7.17188H38.7158V7.04883C38.6924 6.62695 38.6045 6.2168 38.4521 5.81836C38.3057 5.41992 38.0713 5.0918 37.749 4.83398C37.4268 4.57617 36.9873 4.44727 36.4307 4.44727C36.0615 4.44727 35.7217 4.52637 35.4111 4.68457C35.1006 4.83691 34.834 5.06543 34.6113 5.37012C34.3887 5.6748 34.2158 6.04688 34.0928 6.48633C33.9697 6.92578 33.9082 7.43262 33.9082 8.00684V8.37598C33.9082 8.82715 33.9697 9.25195 34.0928 9.65039C34.2217 10.043 34.4062 10.3887 34.6465 10.6875C34.8926 10.9863 35.1885 11.2207 35.5342 11.3906C35.8857 11.5605 36.2842 11.6455 36.7295 11.6455C37.3037 11.6455 37.79 11.5283 38.1885 11.2939C38.5869 11.0596 38.9355 10.7461 39.2344 10.3535L40.2188 11.1357C40.0137 11.4463 39.7529 11.7422 39.4365 12.0234C39.1201 12.3047 38.7305 12.5332 38.2676 12.709C37.8105 12.8848 37.2686 12.9727 36.6416 12.9727ZM43.8662 5.11523V16.4531H42.2314V3.28711H43.7256L43.8662 5.11523ZM50.2734 7.96289V8.14746C50.2734 8.83887 50.1914 9.48047 50.0273 10.0723C49.8633 10.6582 49.623 11.168 49.3066 11.6016C48.9961 12.0352 48.6123 12.3721 48.1553 12.6123C47.6982 12.8525 47.1738 12.9727 46.582 12.9727C45.9785 12.9727 45.4453 12.873 44.9824 12.6738C44.5195 12.4746 44.127 12.1846 43.8047 11.8037C43.4824 11.4229 43.2246 10.9658 43.0312 10.4326C42.8438 9.89941 42.7148 9.29883 42.6445 8.63086V7.64648C42.7148 6.94336 42.8467 6.31348 43.04 5.75684C43.2334 5.2002 43.4883 4.72559 43.8047 4.33301C44.127 3.93457 44.5166 3.63281 44.9736 3.42773C45.4307 3.2168 45.958 3.11133 46.5557 3.11133C47.1533 3.11133 47.6836 3.22852 48.1465 3.46289C48.6094 3.69141 48.999 4.01953 49.3154 4.44727C49.6318 4.875 49.8691 5.3877 50.0273 5.98535C50.1914 6.57715 50.2734 7.23633 50.2734 7.96289ZM48.6387 8.14746V7.96289C48.6387 7.48828 48.5889 7.04297 48.4893 6.62695C48.3896 6.20508 48.2344 5.83594 48.0234 5.51953C47.8184 5.19727 47.5547 4.94531 47.2324 4.76367C46.9102 4.57617 46.5264 4.48242 46.0811 4.48242C45.6709 4.48242 45.3135 4.55273 45.0088 4.69336C44.71 4.83398 44.4551 5.02441 44.2441 5.26465C44.0332 5.49902 43.8604 5.76855 43.7256 6.07324C43.5967 6.37207 43.5 6.68262 43.4355 7.00488V9.28125C43.5527 9.69141 43.7168 10.0781 43.9277 10.4414C44.1387 10.7988 44.4199 11.0889 44.7715 11.3115C45.123 11.5283 45.5654 11.6367 46.0986 11.6367C46.5381 11.6367 46.916 11.5459 47.2324 11.3643C47.5547 11.1768 47.8184 10.9219 48.0234 10.5996C48.2344 10.2773 48.3896 9.9082 48.4893 9.49219C48.5889 9.07031 48.6387 8.62207 48.6387 8.14746ZM53.3057 3.28711L55.3887 6.75L57.498 3.28711H59.4053L56.2939 7.98047L59.502 12.7969H57.6211L55.4238 9.22852L53.2266 12.7969H51.3369L54.5361 7.98047L51.4336 3.28711H53.3057ZM68.4843 12.7969V2.30287C68.1003 2.62687 67.5243 2.97487 66.7563 3.34687V2.71687C67.2003 2.33287 67.5843 1.94287 67.9083 1.54688C68.2323 1.15087 68.4963 0.748874 68.7003 0.340874H69.0243C69.2283 0.748874 69.4923 1.15087 69.8163 1.54688C70.1403 1.94287 70.5243 2.33287 70.9683 2.71687V3.34687C70.5963 3.16687 70.2663 2.99287 69.9783 2.82487C69.6903 2.64487 69.4443 2.47087 69.2403 2.30287V12.7969H68.4843Z" fill="black"/>
</svg>
